<?xml version="1.0" encoding="UTF-8" standalone="no"?>
<svg xmlns="http://www.w3.org/2000/svg" xmlns:xlink="http://www.w3.org/1999/xlink" width="1158" height="800" viewBox="0 0 1158 800">
  <!-- 背景 -->
  <rect width="1158" height="800" fill="#f9fafb" />
  
  <!-- 标题 -->
  <text x="579" y="40" font-family="Arial" font-size="24" font-weight="bold" text-anchor="middle" fill="#0052D9">业务推广完整流程</text>
  
  <!-- 流程节点 -->
  <!-- 开始节点 -->
  <circle cx="579" cy="100" r="25" fill="#0052D9" />
  <text x="579" y="105" font-family="Arial" font-size="14" font-weight="bold" text-anchor="middle" fill="white">开始</text>
  
  <!-- 流程连接线 -->
  <line x1="579" y1="125" x2="579" y2="150" stroke="#4B5563" stroke-width="2" stroke-dasharray="5,5" />
  
  <!-- 业务员查看产品信息 -->
  <a xlink:href="merchant_fee_discount.html" target="_top">
    <rect x="479" y="150" width="200" height="50" rx="8" fill="#E1EFFE" stroke="#0052D9" stroke-width="2" />
    <text x="579" y="180" font-family="Arial" font-size="14" font-weight="bold" text-anchor="middle" fill="#1F2937">业务员查看产品信息</text>
  </a>
  
  <!-- 流程连接线 -->
  <line x1="579" y1="200" x2="579" y2="225" stroke="#4B5563" stroke-width="2" stroke-dasharray="5,5" />
  
  <!-- 获取推广二维码 -->
  <a xlink:href="agent.html" target="_top">
    <rect x="479" y="225" width="200" height="50" rx="8" fill="#E1EFFE" stroke="#0052D9" stroke-width="2" />
    <text x="579" y="255" font-family="Arial" font-size="14" font-weight="bold" text-anchor="middle" fill="#1F2937">获取推广二维码</text>
  </a>
  
  <!-- 流程连接线 -->
  <line x1="579" y1="275" x2="579" y2="300" stroke="#4B5563" stroke-width="2" stroke-dasharray="5,5" />
  
  <!-- 展示或发送二维码给商户 -->
  <a xlink:href="agent.html" target="_top">
    <rect x="479" y="300" width="200" height="50" rx="8" fill="#E1EFFE" stroke="#0052D9" stroke-width="2" />
    <text x="579" y="330" font-family="Arial" font-size="14" font-weight="bold" text-anchor="middle" fill="#1F2937">展示或发送二维码给商户</text>
  </a>
  
  <!-- 流程连接线 -->
  <line x1="579" y1="350" x2="579" y2="375" stroke="#4B5563" stroke-width="2" stroke-dasharray="5,5" />
  
  <!-- 商户扫码查看产品权益 -->
  <a xlink:href="benefit_detail.html" target="_top">
    <rect x="479" y="375" width="200" height="50" rx="8" fill="#E1EFFE" stroke="#0052D9" stroke-width="2" />
    <text x="579" y="405" font-family="Arial" font-size="14" font-weight="bold" text-anchor="middle" fill="#1F2937">商户扫码查看产品权益</text>
  </a>
  
  <!-- 流程连接线 -->
  <line x1="579" y1="425" x2="579" y2="450" stroke="#4B5563" stroke-width="2" stroke-dasharray="5,5" />
  
  <!-- 商户购买权益 -->
  <a xlink:href="purchase_confirm.html" target="_top">
    <rect x="479" y="450" width="200" height="50" rx="8" fill="#E1EFFE" stroke="#0052D9" stroke-width="2" />
    <text x="579" y="480" font-family="Arial" font-size="14" font-weight="bold" text-anchor="middle" fill="#1F2937">商户购买权益</text>
  </a>
  
  <!-- 流程连接线 -->
  <line x1="579" y1="500" x2="579" y2="525" stroke="#4B5563" stroke-width="2" stroke-dasharray="5,5" />
  
  <!-- 代理商和业务员获取收益 -->
  <a xlink:href="promotion_stats.html" target="_top">
    <rect x="479" y="525" width="200" height="50" rx="8" fill="#D8F3DC" stroke="#10B981" stroke-width="2" />
    <text x="579" y="555" font-family="Arial" font-size="14" font-weight="bold" text-anchor="middle" fill="#1F2937">代理商和业务员获取收益</text>
  </a>
  
  <!-- 流程连接线 -->
  <line x1="579" y1="575" x2="579" y2="600" stroke="#4B5563" stroke-width="2" stroke-dasharray="5,5" />
  
  <!-- 数据追踪与分析 -->
  <a xlink:href="promotion_stats.html" target="_top">
    <rect x="479" y="600" width="200" height="50" rx="8" fill="#E1EFFE" stroke="#0052D9" stroke-width="2" />
    <text x="579" y="630" font-family="Arial" font-size="14" font-weight="bold" text-anchor="middle" fill="#1F2937">数据追踪与分析</text>
  </a>
  
  <!-- 流程连接线 -->
  <line x1="579" y1="650" x2="579" y2="675" stroke="#4B5563" stroke-width="2" stroke-dasharray="5,5" />
  
  <!-- 结束节点 -->
  <circle cx="579" cy="700" r="25" fill="#0052D9" />
  <text x="579" y="705" font-family="Arial" font-size="14" font-weight="bold" text-anchor="middle" fill="white">结束</text>
  
  <!-- 左侧说明 -->
  <text x="250" y="180" font-family="Arial" font-size="12" text-anchor="end" fill="#4B5563">浏览可推广的权益产品列表</text>
  <line x1="255" y1="180" x2="475" y2="180" stroke="#4B5563" stroke-width="1" stroke-dasharray="3,3" />
  
  <text x="250" y="255" font-family="Arial" font-size="12" text-anchor="end" fill="#4B5563">生成包含业务员ID的专属二维码</text>
  <line x1="255" y1="255" x2="475" y2="255" stroke="#4B5563" stroke-width="1" stroke-dasharray="3,3" />
  
  <text x="250" y="330" font-family="Arial" font-size="12" text-anchor="end" fill="#4B5563">线下拜访或在线分享</text>
  <line x1="255" y1="330" x2="475" y2="330" stroke="#4B5563" stroke-width="1" stroke-dasharray="3,3" />
  
  <!-- 右侧说明 -->
  <text x="900" y="405" font-family="Arial" font-size="12" text-anchor="start" fill="#4B5563">进入代理推广页面</text>
  <line x1="683" y1="405" x2="895" y2="405" stroke="#4B5563" stroke-width="1" stroke-dasharray="3,3" />
  
  <text x="900" y="480" font-family="Arial" font-size="12" text-anchor="start" fill="#4B5563">系统记录推广来源信息</text>
  <line x1="683" y1="480" x2="895" y2="480" stroke="#4B5563" stroke-width="1" stroke-dasharray="3,3" />
  
  <text x="900" y="555" font-family="Arial" font-size="12" text-anchor="start" fill="#4B5563">系统自动计算并分配佣金</text>
  <line x1="683" y1="555" x2="895" y2="555" stroke="#4B5563" stroke-width="1" stroke-dasharray="3,3" />
  
  <text x="900" y="630" font-family="Arial" font-size="12" text-anchor="start" fill="#4B5563">实时查看推广数据和佣金统计</text>
  <line x1="683" y1="630" x2="895" y2="630" stroke="#4B5563" stroke-width="1" stroke-dasharray="3,3" />
  
  <!-- 图例 -->
  <rect x="900" y="100" width="20" height="20" rx="4" fill="#E1EFFE" stroke="#0052D9" stroke-width="2" />
  <text x="930" y="115" font-family="Arial" font-size="14" fill="#1F2937">操作步骤</text>
  
  <rect x="900" y="130" width="20" height="20" rx="4" fill="#D8F3DC" stroke="#10B981" stroke-width="2" />
  <text x="930" y="145" font-family="Arial" font-size="14" fill="#1F2937">收益节点</text>
  
  <circle cx="910" cy="170" r="10" fill="#0052D9" />
  <text x="930" y="175" font-family="Arial" font-size="14" fill="#1F2937">开始/结束</text>
</svg> 